<?xml version="1.0" standalone="no"?>
<!DOCTYPE svg PUBLIC "-//W3C//DTD SVG 20010904//EN"
 "http://www.w3.org/TR/2001/REC-SVG-20010904/DTD/svg10.dtd">
<svg version="1.0" xmlns="http://www.w3.org/2000/svg"
 width="1080.000000pt" height="1120.000000pt" viewBox="0 0 1080.000000 1120.000000"
 preserveAspectRatio="xMidYMid meet">

<g transform="translate(0.000000,1120.000000) scale(0.100000,-0.100000)"
fill="#FFFFFF" stroke="#000000">
<path d="M3693 9978 c-19 -14 -33 -34 -35 -50 -3 -16 -2 -28 1 -28 4 0 5 -20
3 -45 -3 -33 -1 -45 8 -43 7 2 16 -10 21 -25 4 -16 13 -34 19 -41 8 -10 7 -15
-5 -20 -8 -3 -15 -12 -15 -20 0 -14 -29 -26 -66 -26 -25 0 -36 20 -39 75 -3
32 -11 46 -47 77 -23 21 -48 38 -54 38 -23 0 -38 -32 -35 -77 1 -25 -4 -52
-11 -61 -11 -13 -10 -15 5 -9 21 8 23 -15 2 -33 -8 -7 -15 -27 -15 -45 0 -17
-3 -35 -6 -38 -4 -4 -8 -23 -10 -43 -2 -21 -8 -42 -14 -48 -5 -5 -10 -36 -10
-67 0 -32 -5 -59 -10 -61 -6 -2 -11 -23 -13 -48 -1 -25 -4 -47 -7 -50 -3 -3
-20 -39 -38 -80 -18 -41 -44 -96 -57 -123 -14 -26 -25 -53 -25 -61 0 -7 -7
-19 -15 -26 -8 -7 -15 -27 -15 -46 0 -18 -4 -36 -10 -39 -5 -3 -10 -28 -10
-55 0 -32 -7 -61 -20 -82 -11 -18 -20 -42 -20 -53 0 -11 -11 -36 -24 -55 -13
-19 -27 -55 -31 -80 -4 -25 -13 -52 -20 -60 -7 -8 -20 -40 -30 -70 -10 -30
-35 -92 -56 -137 -22 -46 -39 -91 -39 -100 0 -10 -9 -33 -20 -51 -11 -18 -20
-41 -20 -51 0 -10 -7 -24 -15 -31 -8 -7 -15 -20 -15 -30 0 -10 -6 -23 -14 -29
-7 -6 -16 -25 -20 -42 -3 -17 -15 -42 -26 -56 -11 -14 -20 -31 -20 -39 0 -12
-29 -73 -40 -84 -3 -3 -6 -16 -8 -29 -1 -14 -8 -32 -16 -40 -7 -9 -19 -32 -26
-51 -8 -19 -27 -60 -42 -90 -15 -30 -28 -60 -28 -67 0 -7 -4 -13 -8 -13 -4 0
-20 -28 -35 -62 -38 -86 -66 -144 -99 -201 -16 -27 -26 -52 -24 -56 3 -4 -6
-20 -20 -36 -13 -15 -24 -34 -24 -42 0 -7 -13 -41 -29 -75 -16 -35 -31 -80
-34 -101 -3 -20 -19 -54 -36 -74 -17 -21 -31 -43 -31 -49 0 -7 -11 -36 -24
-65 -14 -29 -23 -56 -20 -61 3 -4 0 -8 -5 -8 -6 0 -11 -7 -11 -17 0 -9 -11
-31 -25 -49 -14 -18 -25 -37 -25 -43 0 -6 -4 -11 -10 -11 -5 0 -9 -3 -8 -7 1
-9 -8 -35 -30 -83 -8 -19 -15 -41 -13 -47 1 -7 -2 -13 -7 -13 -5 0 -12 -13
-15 -30 -4 -16 -15 -48 -26 -70 -11 -23 -23 -54 -26 -70 -4 -17 -11 -32 -16
-35 -5 -4 -9 -15 -9 -26 0 -10 -4 -19 -10 -19 -5 0 -10 -4 -10 -10 0 -5 -14
-31 -30 -57 -17 -26 -30 -53 -30 -60 0 -7 -11 -36 -24 -65 -13 -29 -33 -74
-45 -100 -11 -26 -21 -53 -21 -61 0 -8 -9 -26 -20 -40 -11 -14 -20 -29 -20
-33 0 -4 -8 -17 -18 -28 -10 -12 -24 -41 -31 -66 -22 -80 -83 -204 -110 -226
-9 -7 -12 -20 -7 -37 3 -14 2 -27 -3 -29 -4 -2 -18 -23 -29 -48 -12 -25 -26
-52 -31 -60 -14 -23 -41 -87 -41 -98 0 -5 -7 -15 -15 -22 -8 -7 -15 -25 -15
-40 0 -15 -7 -33 -15 -40 -8 -7 -15 -23 -15 -36 0 -13 -9 -39 -20 -59 -11 -19
-18 -35 -16 -35 2 0 0 -17 -6 -37 -5 -21 -12 -49 -14 -63 -7 -31 -6 -122 2
-172 4 -25 2 -38 -5 -38 -18 0 -34 -52 -23 -71 7 -11 3 -24 -19 -48 -16 -19
-26 -37 -23 -42 3 -5 -4 -19 -15 -31 -12 -12 -21 -27 -21 -32 0 -6 -11 -33
-25 -61 -14 -29 -25 -68 -25 -93 0 -28 -5 -45 -15 -48 -8 -4 -15 -12 -15 -19
0 -8 -6 -20 -13 -27 -6 -7 -18 -31 -26 -53 -7 -22 -20 -51 -29 -65 -9 -14 -29
-56 -45 -95 -16 -38 -34 -81 -40 -95 -6 -14 -11 -27 -12 -30 -30 -102 -62
-137 -116 -126 -29 5 -40 -2 -74 -46 -6 -7 -25 -31 -43 -53 -17 -22 -32 -49
-32 -61 0 -12 -7 -27 -15 -34 -8 -7 -15 -21 -15 -31 0 -11 -13 -48 -30 -82
-16 -35 -30 -71 -30 -80 0 -10 -4 -17 -10 -17 -5 0 -12 -17 -15 -37 -4 -21
-10 -47 -15 -58 -4 -11 -11 -27 -14 -35 -3 -8 -15 -30 -27 -49 -11 -19 -21
-47 -21 -63 -1 -20 -5 -27 -14 -24 -8 3 -20 -9 -30 -32 -32 -73 -39 -87 -48
-94 -5 -3 -10 -14 -11 -25 -1 -10 -7 -29 -12 -43 -6 -14 -21 -56 -33 -95 -12
-38 -28 -77 -35 -85 -7 -8 -18 -41 -25 -72 -6 -32 -16 -60 -21 -64 -5 -3 -7
-9 -4 -14 3 -5 -6 -17 -20 -26 -14 -9 -25 -22 -25 -30 0 -7 -16 -16 -35 -20
-19 -3 -35 -9 -35 -13 0 -4 -10 -7 -22 -8 -12 -1 -33 -14 -46 -28 -22 -24 -23
-31 -15 -74 10 -49 4 -67 -38 -116 -9 -11 -19 -31 -21 -45 -2 -14 -9 -24 -16
-22 -8 1 -11 -1 -8 -6 3 -5 -8 -30 -24 -56 -17 -26 -30 -60 -30 -76 0 -16 -4
-31 -9 -34 -4 -3 -11 -31 -14 -63 -3 -32 -12 -71 -21 -88 -13 -25 -16 -70 -15
-280 0 -187 3 -244 11 -225 37 87 49 110 56 110 10 0 42 70 42 91 0 8 9 32 20
54 11 22 20 46 20 55 0 9 4 20 9 26 4 5 17 32 26 59 10 28 27 63 38 78 11 16
20 46 21 68 0 21 5 39 10 39 14 0 35 33 36 55 0 11 7 29 15 39 8 11 15 28 15
38 0 11 6 26 12 34 62 73 109 89 172 55 23 -11 46 -21 53 -21 22 0 53 57 53
98 0 24 6 45 16 53 10 8 13 21 9 37 -4 16 0 31 11 43 9 10 14 25 11 32 -3 8 1
27 9 43 8 15 18 49 21 74 3 25 10 50 17 55 24 21 46 84 37 107 -10 27 16 81
36 74 7 -3 13 1 13 9 0 15 19 55 31 65 12 10 39 69 39 85 0 9 11 31 25 49 14
18 25 37 25 43 0 6 10 21 23 34 13 15 23 40 25 64 1 26 11 48 27 65 14 14 25
31 25 38 0 7 5 12 10 12 6 0 10 9 10 20 0 11 5 20 10 20 6 0 10 -5 10 -12 0
-9 3 -9 11 -1 8 8 7 16 -2 31 -11 17 -9 24 14 52 15 18 27 44 27 60 0 15 6 33
14 40 8 6 16 21 18 33 2 12 9 21 16 19 6 -1 12 7 12 17 0 11 11 41 25 68 13
27 27 69 31 94 4 24 13 49 19 54 7 6 22 38 34 72 13 34 32 70 42 79 11 10 19
27 18 38 -2 20 2 33 22 84 5 13 9 31 9 41 0 10 9 30 20 44 11 14 20 32 20 40
0 8 15 37 33 65 19 27 37 66 40 86 3 19 18 51 32 70 15 19 24 40 21 45 -4 5
-2 12 4 16 11 7 55 88 50 93 -8 9 25 129 39 142 13 12 51 89 51 104 0 9 6 16
13 16 12 0 37 65 37 98 0 11 9 31 20 45 11 14 20 30 20 36 0 6 9 15 20 21 11
6 20 21 20 34 0 12 13 50 30 84 16 34 30 73 30 87 0 13 4 27 10 30 5 3 10 16
10 29 0 23 33 46 66 46 8 0 17 13 20 30 8 36 30 58 45 43 8 -8 8 -17 0 -31
-17 -32 -13 -42 18 -42 19 0 30 -6 33 -18 3 -10 38 -34 80 -55 42 -20 81 -44
88 -52 7 -8 23 -15 36 -15 24 0 74 45 74 67 0 6 9 15 21 18 11 4 27 22 35 41
25 59 -8 98 -128 150 -21 9 -38 20 -38 25 0 5 -6 9 -12 9 -7 0 -29 10 -48 22
-19 12 -39 22 -45 22 -5 1 -21 9 -34 18 -21 15 -23 22 -18 59 3 23 10 45 15
48 5 3 11 15 15 26 3 11 10 35 16 54 10 31 8 36 -30 74 -37 35 -41 44 -36 75
7 39 32 72 56 72 9 0 24 9 34 20 9 11 24 20 32 20 21 0 19 -26 -2 -35 -17 -6
-17 -7 0 -17 10 -5 24 -7 32 -4 8 3 25 -4 38 -15 14 -10 36 -19 49 -19 12 0
46 -12 73 -25 28 -14 55 -25 60 -25 6 0 23 -11 38 -24 26 -23 31 -23 60 -11
30 12 32 16 31 62 -1 26 -5 56 -9 66 -5 12 -3 17 9 17 11 0 16 9 16 30 0 23
-9 36 -46 62 -25 18 -69 55 -97 81 -29 26 -79 61 -112 76 -33 16 -68 38 -78
48 -15 17 -15 22 -2 39 8 10 15 26 15 34 0 16 30 81 48 103 5 7 12 23 15 37 6
25 26 55 61 92 15 17 26 19 59 14 23 -4 44 -11 47 -17 8 -12 80 -49 97 -49 7
0 21 -9 30 -20 10 -11 27 -20 38 -20 12 0 39 -16 61 -35 21 -19 49 -35 62 -35
12 0 33 -7 47 -16 22 -15 25 -14 54 17 17 17 31 38 31 45 0 8 5 14 10 14 6 0
10 20 10 44 0 40 -4 48 -42 79 -45 36 -107 68 -136 72 -29 3 -74 25 -112 55
-21 17 -40 30 -44 30 -3 0 -24 18 -46 40 -32 31 -40 45 -35 61 9 26 10 33 20
86 4 24 14 48 21 54 8 6 14 20 14 30 0 22 34 81 42 74 3 -3 3 6 1 19 -6 27 28
94 72 143 42 47 45 52 45 63 0 10 4 21 34 77 9 17 16 39 16 48 0 9 5 13 10 10
6 -3 10 4 10 17 0 13 9 37 20 53 11 17 20 37 20 45 0 8 9 26 20 40 11 14 20
32 20 41 0 18 47 107 67 127 7 7 13 22 13 32 0 22 59 152 74 162 6 4 7 10 4
14 -4 3 1 23 11 43 10 20 21 51 25 70 3 19 12 42 20 50 15 18 31 66 41 124 3
20 10 37 15 37 6 0 10 7 10 15 0 8 7 15 17 15 9 0 13 3 10 7 -4 3 1 15 10 26
10 10 18 31 18 46 0 15 6 26 13 26 8 0 20 17 27 38 7 20 17 43 23 50 5 6 9 27
7 45 -1 21 3 36 12 39 7 3 13 11 13 18 0 16 29 73 41 80 5 4 9 15 9 26 0 20
30 103 52 144 50 92 68 133 68 153 0 12 6 25 14 28 8 3 12 12 10 19 -3 7 -1
16 5 20 6 3 11 15 11 26 0 11 13 39 28 62 15 23 33 65 40 92 7 28 17 52 23 53
5 2 9 10 9 18 0 8 5 14 11 14 6 0 8 9 4 20 -5 14 -2 20 9 20 11 0 16 9 16 30
0 30 14 62 38 88 13 14 15 23 13 62 0 14 8 35 18 48 19 21 22 22 53 9 44 -18
65 -44 50 -59 -14 -14 -16 -42 -3 -33 5 3 13 0 17 -6 3 -6 1 -15 -6 -19 -8 -5
-9 -10 -1 -14 6 -4 18 -24 27 -44 10 -20 26 -47 36 -58 12 -13 15 -24 10 -28
-11 -7 3 -74 19 -91 5 -5 9 -17 9 -28 0 -27 31 -120 46 -137 19 -23 46 -109
39 -129 -3 -11 3 -25 15 -36 14 -13 20 -31 20 -62 0 -23 4 -43 8 -43 4 0 8
-16 8 -36 0 -26 7 -42 23 -55 18 -15 22 -26 18 -48 -3 -15 -2 -32 3 -37 8 -9
18 -62 19 -111 1 -17 7 -23 25 -23 14 0 28 -4 31 -10 3 -5 21 -7 39 -5 24 4
37 1 50 -14 10 -11 15 -24 12 -30 -4 -6 4 -17 17 -25 35 -23 89 -11 109 25 18
31 15 52 -14 83 -10 11 -18 28 -18 37 0 10 -5 19 -10 21 -6 2 -13 21 -16 43
-3 22 -13 56 -22 75 -9 19 -17 46 -18 60 -1 14 -5 39 -9 55 -6 30 -10 39 -38
105 -8 19 -18 45 -22 58 -3 12 -10 22 -14 22 -5 0 -11 23 -14 51 -4 28 -15 70
-25 93 -11 22 -28 62 -38 88 -11 27 -22 48 -26 48 -5 0 -8 16 -8 35 0 20 -9
55 -20 77 -11 23 -20 51 -20 63 0 11 -9 38 -19 58 -10 21 -17 46 -14 58 3 11
-1 27 -10 37 -8 9 -21 35 -28 57 -7 22 -19 48 -25 59 -7 10 -10 25 -7 32 3 8
-5 25 -18 39 -61 62 -69 72 -69 83 0 7 -14 43 -31 80 -29 63 -98 142 -124 142
-6 0 -24 -10 -42 -22z"/>
<path d="M7360 8285 c-7 -8 -21 -15 -31 -15 -10 0 -21 -5 -24 -10 -4 -6 -34
-23 -68 -39 -37 -16 -77 -45 -100 -70 -21 -23 -41 -40 -46 -37 -4 3 -25 -11
-45 -30 -39 -36 -89 -67 -203 -124 -35 -17 -67 -38 -72 -48 -5 -9 -44 -35 -85
-56 -42 -22 -91 -54 -108 -72 -18 -18 -36 -30 -41 -27 -5 3 -15 -4 -23 -15
-20 -28 -104 -88 -135 -95 -14 -4 -39 -19 -55 -34 -16 -16 -54 -44 -84 -65
-89 -58 -143 -113 -135 -138 4 -11 3 -19 -2 -18 -4 2 -9 0 -11 -4 -6 -20 0
-26 19 -21 19 5 21 3 17 -18 -4 -24 -3 -24 59 -21 47 3 63 7 63 18 0 9 4 13
10 9 5 -3 16 6 25 19 9 14 26 28 36 31 11 4 24 18 30 32 6 16 14 23 24 19 30
-11 84 20 98 57 5 13 13 16 27 12 13 -4 25 1 37 14 10 12 27 21 39 21 12 0 44
23 77 57 30 31 64 57 75 58 10 0 53 24 95 53 42 29 80 52 85 52 5 0 15 7 22
15 7 8 19 15 26 15 8 0 23 8 33 18 36 32 50 42 60 42 21 0 61 24 61 36 0 24
22 26 46 3 25 -24 25 -37 -2 -93 -8 -16 -14 -36 -14 -45 0 -9 -14 -43 -30 -76
-17 -33 -30 -63 -30 -68 0 -5 -12 -24 -26 -43 -15 -19 -31 -55 -35 -81 -5 -26
-18 -56 -28 -67 -10 -12 -17 -26 -14 -33 2 -6 -1 -14 -6 -18 -6 -3 -11 -14
-11 -23 0 -10 -9 -35 -20 -57 -11 -22 -20 -47 -20 -56 0 -9 -16 -34 -35 -55
-29 -31 -35 -46 -35 -80 0 -24 -4 -46 -10 -49 -5 -3 -10 -1 -10 5 0 6 -4 8
-10 5 -5 -3 -10 -17 -10 -31 0 -14 -7 -27 -15 -30 -8 -4 -15 -14 -15 -24 0
-11 -4 -22 -10 -25 -5 -3 -10 -14 -10 -23 0 -10 -9 -35 -20 -57 -11 -22 -20
-45 -20 -52 0 -7 -4 -13 -10 -13 -5 0 -10 -9 -10 -20 0 -11 -4 -20 -8 -20 -5
0 -19 -33 -32 -72 -12 -40 -27 -82 -32 -93 -20 -45 -40 -75 -48 -75 -5 0 -7
-7 -3 -16 3 -9 1 -19 -5 -23 -6 -3 -12 -36 -14 -71 -2 -36 -8 -72 -13 -80 -5
-8 -8 -24 -7 -35 2 -11 -11 -35 -27 -52 -16 -18 -26 -35 -21 -38 14 -8 -1 -47
-16 -41 -9 4 -15 -2 -15 -17 -5 -65 -18 -98 -38 -95 -11 2 -16 -4 -16 -19 0
-11 -3 -25 -7 -29 -5 -4 -8 -16 -8 -26 0 -10 -3 -18 -7 -18 -12 0 -44 -61 -37
-71 3 -5 -4 -21 -15 -35 -12 -15 -21 -31 -21 -37 0 -6 -6 -18 -13 -26 -8 -9
-20 -32 -27 -51 -7 -19 -23 -48 -34 -65 -12 -16 -26 -41 -33 -55 -25 -55 -41
-97 -53 -132 -6 -21 -15 -40 -20 -43 -4 -2 -11 -30 -15 -60 -3 -30 -11 -55
-16 -55 -5 0 -9 -6 -9 -14 0 -8 -9 -31 -21 -50 -11 -19 -19 -41 -18 -48 2 -7
-14 -48 -34 -91 -20 -42 -37 -81 -37 -85 0 -5 -18 -44 -40 -88 -22 -43 -40
-85 -40 -92 0 -22 -32 -62 -61 -77 -24 -13 -32 -13 -66 1 -72 29 -100 44 -113
59 -7 8 -19 15 -26 15 -8 0 -52 18 -98 40 -93 45 -131 48 -172 15 -20 -16 -26
-30 -27 -60 0 -22 -4 -46 -10 -52 -6 -9 -4 -15 7 -19 9 -3 16 -12 16 -19 0
-21 25 -35 71 -40 24 -2 35 -1 24 2 -28 7 -43 23 -23 23 9 0 24 3 34 7 13 5
15 3 9 -7 -6 -10 -4 -12 7 -8 20 8 61 -45 46 -60 -15 -15 -1 -32 28 -32 14 0
22 -4 19 -10 -3 -6 3 -10 13 -10 11 0 25 -7 32 -15 7 -8 16 -15 21 -15 5 0 25
-10 44 -23 31 -19 35 -27 35 -65 0 -48 -19 -100 -43 -121 -10 -7 -17 -20 -17
-27 0 -8 -7 -22 -16 -31 -8 -10 -23 -29 -33 -42 -15 -20 -25 -24 -70 -23 -55
2 -93 16 -175 66 -36 22 -63 30 -107 32 -33 2 -59 -1 -59 -6 0 -5 -9 -12 -20
-15 -24 -8 -25 -21 -5 -41 8 -9 15 -24 15 -35 0 -16 3 -18 19 -9 18 9 19 8 10
-22 -12 -42 -12 -43 6 -28 12 10 15 10 15 -4 0 -9 -4 -16 -10 -16 -23 0 -7
-22 25 -36 19 -8 36 -14 37 -13 2 1 22 -8 45 -19 23 -12 49 -19 57 -16 8 3 19
-3 25 -15 6 -11 23 -21 38 -23 26 -3 28 -6 25 -43 -2 -22 -13 -64 -25 -93 -17
-43 -19 -57 -9 -72 10 -16 8 -22 -10 -35 -13 -8 -32 -15 -43 -15 -29 0 -125
37 -157 60 -40 30 -115 18 -168 -27 -50 -44 -54 -72 -7 -69 39 3 67 -12 67
-36 0 -10 5 -18 10 -18 6 0 10 -4 10 -9 0 -15 -29 -21 -55 -11 -21 8 -25 7
-25 -9 0 -14 10 -20 46 -25 26 -3 62 -6 80 -6 24 0 32 -4 28 -14 -3 -7 6 -20
20 -30 30 -19 48 -22 21 -2 -17 12 -17 13 8 18 18 3 27 1 27 -7 0 -7 7 -15 15
-19 9 -3 12 -12 8 -22 -3 -10 -2 -15 3 -12 5 3 16 -10 25 -28 12 -25 13 -34 4
-34 -18 0 -43 -85 -40 -136 2 -31 -1 -44 -10 -44 -7 0 -26 -20 -42 -45 -15
-25 -31 -45 -35 -45 -5 0 -8 -11 -8 -24 0 -13 -6 -37 -14 -53 -99 -197 -146
-302 -146 -324 0 -14 -7 -34 -15 -45 -8 -10 -15 -36 -15 -56 0 -20 -4 -40 -10
-43 -5 -3 -10 -16 -10 -29 0 -12 -5 -27 -12 -34 -7 -7 -9 -12 -5 -12 3 0 -4
-15 -17 -34 -16 -24 -25 -56 -30 -105 -4 -39 -11 -71 -17 -71 -5 0 -9 -9 -9
-19 0 -11 -4 -22 -9 -26 -6 -3 -13 -27 -16 -53 -8 -58 -33 -132 -46 -132 -5 0
-9 -14 -9 -30 0 -28 -33 -90 -53 -98 -4 -2 -5 -18 -2 -35 5 -23 1 -38 -12 -52
-10 -11 -25 -40 -33 -64 -8 -24 -20 -45 -28 -48 -7 -3 -11 -12 -8 -20 4 -9 -7
-27 -25 -44 -25 -23 -30 -34 -25 -55 5 -19 2 -33 -12 -48 -10 -11 -27 -43 -37
-71 -10 -27 -24 -59 -30 -70 -7 -11 -20 -45 -30 -75 -24 -79 -43 -118 -63
-129 -14 -8 -15 -13 -4 -30 15 -26 15 -31 -2 -31 -8 0 -17 -13 -21 -29 -3 -16
-17 -42 -31 -58 -13 -15 -24 -35 -24 -43 0 -8 -11 -35 -23 -60 -13 -25 -30
-67 -37 -93 -7 -27 -19 -51 -26 -54 -6 -2 -15 -19 -18 -36 -3 -18 -17 -44 -31
-59 -14 -15 -25 -38 -25 -51 0 -14 -7 -30 -15 -37 -8 -7 -15 -26 -15 -42 0
-16 -6 -31 -14 -34 -8 -3 -18 -19 -21 -35 -4 -16 -12 -32 -19 -36 -18 -12 -58
-104 -53 -123 4 -17 -24 -50 -43 -50 -17 0 -41 -60 -39 -94 2 -23 -4 -43 -21
-64 -64 -81 -72 -93 -67 -106 3 -8 -10 -36 -29 -63 -19 -26 -34 -58 -34 -69 0
-12 -7 -24 -15 -28 -8 -3 -15 -12 -15 -21 0 -13 21 -15 140 -15 l140 0 26 41
c14 22 23 48 19 56 -3 9 2 24 11 34 9 10 18 30 19 43 2 14 6 30 10 36 4 6 9
29 11 50 2 21 15 55 28 75 14 20 22 43 19 51 -3 8 1 14 11 14 10 0 16 9 16 23
0 30 20 84 48 131 13 21 21 45 18 52 -3 8 -1 14 4 14 14 0 33 40 37 78 2 18
12 46 22 63 11 18 17 38 14 45 -3 8 0 14 6 14 6 0 11 7 11 16 0 8 5 25 12 37
7 12 13 28 14 35 1 8 11 23 20 33 12 13 18 34 17 60 -2 29 6 54 27 88 16 26
31 57 33 68 1 11 10 32 20 46 9 15 17 31 17 36 0 6 9 26 19 44 11 19 21 47 23
63 1 16 11 35 22 43 14 10 17 22 13 47 -5 27 -1 35 19 49 13 8 23 19 22 23 -3
9 50 113 68 133 8 8 14 30 14 47 0 23 8 37 30 54 19 14 28 28 25 38 -3 9 4 25
15 35 11 10 20 24 20 31 0 7 6 19 13 26 17 17 47 77 47 95 0 7 4 13 9 13 5 0
12 19 16 42 4 24 18 57 31 74 13 17 24 43 24 57 0 14 6 32 14 39 13 14 27 66
26 105 0 12 6 26 13 30 19 12 33 43 47 103 7 30 16 60 21 66 5 6 6 14 3 17 -4
3 1 13 10 22 9 9 16 25 16 36 0 10 5 19 10 19 6 0 10 13 10 28 0 15 9 45 19
66 11 21 23 51 26 67 4 17 17 41 30 55 12 13 25 38 29 54 3 17 30 59 61 95 30
36 55 75 55 86 0 12 7 37 16 57 27 62 84 186 95 204 5 10 9 23 9 30 0 6 8 21
18 32 10 12 24 39 31 61 14 43 42 106 102 230 22 43 39 85 39 93 0 8 9 25 20
39 11 14 20 34 20 44 0 11 4 27 9 37 19 39 41 122 41 158 0 38 35 124 50 124
11 0 60 96 60 117 0 10 9 35 20 56 11 20 18 37 15 37 -3 0 2 11 11 25 9 14 14
28 10 32 -3 3 -1 12 5 20 7 7 13 27 15 44 2 16 11 37 19 45 8 9 13 20 9 25 -3
6 1 20 9 33 19 29 16 129 -4 171 -17 34 -17 40 -1 75 6 14 14 42 17 64 4 26
12 40 26 43 19 5 27 23 32 73 1 13 14 37 29 51 15 15 27 36 27 46 1 41 13 109
27 141 8 19 14 41 14 49 0 8 13 25 29 39 28 23 59 107 54 144 -4 27 21 74 60
115 23 22 40 49 40 62 0 13 4 23 9 23 12 0 38 26 38 38 0 5 7 15 15 22 8 7 15
19 15 28 0 8 11 30 25 48 14 18 25 37 25 43 0 6 4 11 9 11 5 0 7 9 4 20 -3 11
0 26 6 33 6 8 27 45 46 83 20 38 40 76 44 84 5 8 13 26 19 40 25 63 126 260
133 260 5 0 9 17 9 37 0 20 3 33 7 30 7 -8 26 26 43 80 7 21 25 56 39 78 14
22 26 42 26 45 0 3 9 18 19 33 16 23 18 40 13 109 -5 70 -3 86 13 108 10 14
21 42 25 62 6 30 10 35 27 30 18 -4 20 -2 16 16 -4 13 0 23 8 26 8 3 14 16 14
30 0 28 15 43 24 24 2 -7 4 -4 4 7 -2 26 21 85 33 85 5 0 9 10 9 22 0 11 11
35 23 52 28 36 97 179 97 199 0 8 11 27 25 43 13 15 27 40 30 54 3 15 21 42
39 61 39 40 56 70 56 99 0 11 7 23 15 26 8 4 13 10 10 14 -2 4 4 15 15 25 11
10 20 26 20 36 0 10 9 23 20 29 11 6 18 15 15 21 -4 5 -3 15 2 22 4 6 9 32 10
57 1 25 5 57 9 72 5 22 2 29 -12 35 -23 8 -43 33 -44 53 0 13 1 13 10 0 8 -12
10 -11 10 6 0 11 14 33 30 47 39 35 38 58 -5 102 -29 28 -43 35 -74 35 -22 0
-44 -6 -51 -15z m-1930 -3485 c0 -5 -7 -10 -16 -10 -8 0 -12 5 -9 10 3 6 10
10 16 10 5 0 9 -4 9 -10z m-1362 -4467 c-4 -22 -38 -30 -38 -10 0 14 13 24 33
26 5 1 7 -7 5 -16z"/>
<path d="M4908 8019 c-11 -6 -18 -22 -18 -39 0 -19 -5 -30 -14 -30 -20 0 -31
-57 -15 -76 7 -9 33 -25 58 -36 25 -12 69 -31 98 -44 28 -13 57 -24 62 -24 6
0 11 -7 11 -15 0 -16 60 -46 101 -49 14 -1 46 -18 70 -37 24 -20 52 -39 62
-42 18 -7 18 -8 -1 -34 -11 -16 -29 -37 -41 -47 -12 -11 -21 -26 -21 -35 0 -9
-7 -25 -15 -35 -8 -11 -15 -28 -15 -38 0 -10 -7 -21 -15 -24 -8 -4 -15 -14
-15 -24 0 -9 -9 -28 -19 -42 -11 -13 -23 -38 -27 -54 -4 -16 -15 -38 -25 -49
-27 -30 -52 -106 -39 -119 8 -8 13 -7 18 1 9 15 79 6 90 -11 4 -6 7 -27 7 -46
0 -31 3 -35 29 -38 39 -5 73 15 81 47 4 14 11 28 16 32 5 3 12 23 16 45 5 34
30 94 84 197 12 22 15 48 11 98 -4 66 -4 69 21 78 34 13 83 -1 113 -34 13 -14
29 -23 34 -20 6 3 15 -6 21 -22 12 -33 -5 -111 -29 -130 -17 -14 -32 -38 -68
-113 -15 -30 -38 -72 -51 -92 -13 -21 -23 -44 -23 -53 0 -8 -4 -15 -10 -15
-14 0 -12 -57 3 -67 6 -4 19 -6 28 -5 20 3 32 -34 19 -57 -6 -11 -3 -22 7 -34
13 -13 14 -20 5 -29 -19 -19 -14 -38 10 -38 26 0 118 95 118 121 0 10 4 20 9
23 5 3 12 17 15 32 4 14 18 43 32 65 13 21 21 39 17 39 -3 0 3 10 14 23 11 12
24 33 28 47 4 14 21 50 37 80 24 44 29 63 24 96 -4 32 -1 47 13 63 10 11 23
21 28 21 6 0 22 9 36 20 22 18 25 25 17 46 -6 14 -8 30 -5 34 11 18 -23 76
-61 102 -21 14 -59 32 -82 38 -51 13 -116 45 -133 66 -6 8 -20 14 -30 14 -10
0 -21 4 -24 10 -8 13 -93 50 -116 50 -9 0 -24 6 -31 13 -15 14 -64 38 -120 58
-21 7 -38 18 -38 24 -1 15 -81 50 -108 46 -12 -1 -39 7 -58 18 -19 12 -42 21
-50 21 -8 0 -25 6 -37 14 -31 19 -89 27 -109 15z m732 -469 c0 -5 -4 -10 -9
-10 -6 0 -13 5 -16 10 -3 6 1 10 9 10 9 0 16 -4 16 -10z"/>
<path d="M4925 7700 c-3 -5 -15 -10 -26 -10 -21 0 -68 -46 -69 -67 0 -7 -3
-13 -8 -13 -4 0 -18 -24 -30 -52 -13 -29 -34 -75 -48 -101 -13 -27 -24 -60
-24 -73 0 -20 5 -24 29 -24 16 0 36 -6 43 -13 7 -8 19 -12 26 -9 9 3 10 -3 2
-24 -14 -35 -4 -45 54 -51 44 -4 49 -2 85 36 35 37 37 43 36 98 -1 35 3 66 11
78 8 11 14 26 14 33 0 7 14 27 30 44 23 22 28 33 20 43 -6 7 -10 17 -9 21 5
31 -4 52 -28 64 -16 7 -31 13 -35 12 -5 -1 -8 3 -8 8 0 6 -13 10 -29 10 -17 0
-33 -4 -36 -10z"/>
<path d="M3593 7150 c-13 -5 -23 -15 -23 -22 0 -7 -4 -19 -9 -26 -10 -17 -109
-26 -126 -12 -8 6 -27 12 -43 12 -54 2 -67 -22 -32 -60 11 -12 20 -28 20 -35
0 -8 9 -17 20 -20 11 -3 20 -11 20 -19 0 -7 15 -22 33 -32 59 -35 101 -56 113
-56 7 0 25 -11 41 -24 33 -28 36 -66 9 -128 -9 -21 -16 -50 -16 -65 0 -18 -8
-33 -21 -41 -12 -7 -19 -16 -16 -19 3 -2 -6 -21 -19 -41 -14 -19 -27 -47 -30
-61 -5 -22 -32 -86 -65 -153 -5 -10 -9 -26 -9 -36 0 -10 -5 -23 -11 -29 -6 -6
-12 -25 -13 -42 -2 -25 1 -30 14 -26 18 6 70 -33 70 -53 0 -7 5 -12 11 -12 6
0 9 -7 5 -15 -4 -13 -2 -14 14 -5 11 6 25 8 30 5 5 -3 25 1 44 10 24 12 37 26
41 46 4 16 11 29 17 29 6 0 7 7 4 15 -3 9 -2 23 4 33 5 9 11 29 15 44 3 15 17
38 32 52 19 18 24 30 20 48 -5 15 4 46 27 93 19 39 42 99 51 135 9 37 23 69
33 75 19 11 142 14 142 3 0 -4 8 -9 19 -13 10 -3 31 -16 47 -30 30 -26 88 -36
117 -20 13 7 20 6 27 -5 7 -11 12 -12 20 -4 7 7 30 9 55 7 63 -8 84 16 77 88
-7 77 -29 100 -151 159 -58 29 -123 61 -144 71 -22 10 -54 19 -73 19 -47 0
-108 33 -167 89 -27 25 -60 52 -74 59 -32 18 -122 25 -150 12z"/>
<path d="M4965 6403 c-11 -2 -25 -15 -31 -28 -10 -20 -8 -28 15 -56 21 -25 33
-31 51 -26 16 4 28 0 41 -16 28 -33 24 -51 -9 -44 -23 5 -28 2 -29 -15 -1 -12
3 -18 11 -15 6 3 29 -8 50 -23 21 -16 44 -26 51 -24 21 9 36 -31 34 -93 -2
-61 -51 -225 -69 -231 -5 -2 -10 -13 -10 -25 0 -12 -11 -42 -25 -66 -14 -23
-25 -49 -25 -55 0 -7 -11 -23 -25 -36 -13 -12 -22 -27 -19 -31 3 -5 0 -9 -5
-9 -6 0 -11 -7 -11 -15 0 -8 -4 -23 -8 -33 -16 -32 -42 -82 -59 -113 -18 -30
-18 -30 12 -54 59 -48 65 -55 65 -81 0 -20 4 -25 16 -20 9 3 30 6 48 6 31 0
35 5 74 83 23 45 42 90 42 99 0 9 5 20 11 24 6 3 8 17 5 30 -4 14 -2 24 4 24
6 0 18 16 26 35 8 19 19 35 24 35 6 0 10 6 10 13 0 21 81 181 96 190 7 4 27
37 45 73 30 60 31 68 20 100 -11 29 -10 37 6 59 21 29 53 29 68 0 19 -37 40
-62 63 -74 29 -15 102 -24 102 -12 0 10 34 22 72 26 70 7 78 13 78 56 0 36 -6
46 -62 100 -42 39 -76 63 -103 70 -22 6 -47 15 -57 19 -9 5 -39 12 -67 16 -28
4 -51 10 -51 15 0 5 -8 9 -19 9 -19 0 -64 18 -111 45 -14 8 -47 15 -74 15 -58
0 -165 26 -187 46 -15 13 -42 16 -84 7z"/>
<path d="M3870 5447 c-15 -8 -24 -21 -23 -32 2 -20 -32 -50 -57 -50 -8 0 -16
-8 -18 -18 -2 -12 3 -17 17 -17 28 0 61 -34 61 -63 0 -12 9 -29 20 -37 26 -19
27 -74 1 -101 -11 -12 -22 -37 -26 -57 -3 -21 -22 -69 -42 -109 -19 -40 -32
-76 -29 -82 28 -44 -87 -78 -139 -42 -5 4 -20 8 -33 9 -12 0 -42 17 -66 37
-54 44 -107 55 -222 47 -15 -2 -29 -18 -48 -53 -14 -28 -23 -55 -20 -60 7 -12
34 -12 34 0 0 5 14 13 32 16 25 6 34 3 47 -13 9 -11 35 -28 59 -38 24 -9 40
-20 35 -23 -11 -8 -13 -41 -2 -41 5 0 9 -7 9 -15 0 -8 9 -19 20 -25 10 -6 17
-17 14 -24 -6 -16 29 -31 46 -21 6 4 20 -3 30 -15 10 -12 23 -19 29 -16 5 4
15 -2 20 -13 6 -11 27 -25 46 -31 19 -6 53 -27 76 -46 22 -19 45 -34 50 -34 5
0 9 -7 9 -15 0 -8 6 -12 14 -9 17 7 68 -24 61 -37 -3 -4 8 -15 25 -24 25 -13
34 -14 46 -4 13 10 17 10 24 -1 14 -23 23 -4 10 20 -9 17 -9 21 0 15 19 -12
121 -15 141 -4 35 18 40 43 17 90 -11 24 -28 49 -37 56 -9 6 -16 15 -16 20 0
13 -55 63 -69 63 -28 0 -102 48 -120 79 -16 28 -16 34 -4 49 19 23 44 80 52
119 4 17 14 37 22 44 13 11 34 51 47 91 3 9 18 25 32 34 22 15 33 15 78 6 29
-7 63 -9 76 -6 12 4 26 3 30 -2 3 -5 20 -14 37 -20 27 -10 34 -9 48 8 9 10 20
16 25 13 5 -2 22 2 37 10 16 8 35 15 43 15 22 0 51 40 51 71 0 31 -34 57 -113
83 -69 23 -124 53 -130 71 -4 8 -14 15 -23 15 -20 0 -110 45 -130 65 -9 8 -23
15 -32 15 -9 0 -35 12 -57 25 -45 28 -78 31 -115 12z"/>
<path d="M5020 3770 c0 -5 5 -10 11 -10 5 0 7 5 4 10 -3 6 -8 10 -11 10 -2 0
-4 -4 -4 -10z"/>
<path d="M755 2630 c4 -6 11 -8 16 -5 14 9 11 15 -7 15 -8 0 -12 -5 -9 -10z"/>
<path d="M415 2070 c-3 -5 -2 -10 4 -10 5 0 13 5 16 10 3 6 2 10 -4 10 -5 0
-13 -4 -16 -10z"/>
</g>
</svg>
